<?xml version="1.0" encoding="utf-8"?>
<!-- Generator: Adobe Illustrator 27.4.0, SVG Export Plug-In . SVG Version: 6.00 Build 0)  -->
<svg version="1.1" id="레이어_1" xmlns="http://www.w3.org/2000/svg" xmlns:xlink="http://www.w3.org/1999/xlink" x="0px"
	 y="0px" viewBox="0 0 1300 300" style="enable-background:new 0 0 1300 300;" xml:space="preserve">
<style type="text/css">
	.st0{fill:url(#SVGID_1_);}
	.st1{fill:url(#SVGID_00000168118097319241736870000000263914567060028040_);}
	.st2{fill:url(#SVGID_00000163765308688651850920000002786330832588443280_);}
	.st3{fill:#212121;}
</style>
<g>
	<g>
	    <linearGradient id="gradient" x1="0" x2="1" y1="0" y2="0.8">
        <stop offset="0%" stop-color="#19b5fe"/>
        <stop offset="100%" stop-color="#5333ed"/>
    </linearGradient>
	
		<path fill="url(#gradient)" d="M177.16,164.04L177.16,164.04c-14.63-10.25-18.19-30.42-7.94-45.05l61.85-88.33
			c10.25-14.63,30.42-18.19,45.05-7.94l0,0c14.63,10.25,18.19,30.42,7.94,45.05l-61.85,88.33
			C211.96,170.74,191.79,174.29,177.16,164.04z"/>
		<path fill="url(#gradient)" d="M157.97,280.09L157.97,280.09 c-16.19,7.55-35.44,0.55-42.99-15.65L32.95,88.54C25.4,72.35,32.4,53.1,48.6,45.55l0,0C64.79,38,84.04,45.01,91.59,61.2
			l82.03,175.91C181.16,253.3,174.16,272.54,157.97,280.09z"/>
		<path fill="url(#gradient)" d="M235.69,258.14L235.69,258.14
			c-17.87,0-32.35-14.48-32.35-32.35v0c0-17.87,14.48-32.35,32.35-32.35h0c17.87,0,32.35,14.48,32.35,32.35v0
			C268.04,243.66,253.56,258.14,235.69,258.14z"/>
	</g>
	<g>
		<path class="st3" d="M363.5,253.95V43.05h40.8v210.9H363.5z M491,253.95l-91.5-110.1l89.1-100.8h51l-99.3,109.5v-18.9l102.6,120.3
			H491z"/>
		<path class="st3" d="M620.29,256.95c-14.6,0-27.75-3.35-39.45-10.05c-11.7-6.7-21-15.8-27.9-27.3
			c-6.9-11.5-10.35-24.35-10.35-38.55c0-14.2,3.4-26.95,10.2-38.25c6.8-11.3,16.1-20.3,27.9-27c11.8-6.7,24.9-10.05,39.3-10.05
			c14.8,0,28.05,3.35,39.75,10.05c11.7,6.7,20.95,15.7,27.75,27c6.8,11.3,10.2,24.05,10.2,38.25c0,14.2-3.4,27.05-10.2,38.55
			c-6.8,11.5-16.05,20.6-27.75,27.3C648.04,253.6,634.89,256.95,620.29,256.95z M619.99,220.35c7.4,0,13.95-1.65,19.65-4.95
			c5.7-3.3,10.1-7.9,13.2-13.8c3.1-5.9,4.65-12.65,4.65-20.25c0-7.6-1.6-14.3-4.8-20.1c-3.2-5.8-7.6-10.35-13.2-13.65
			c-5.6-3.3-12.1-4.95-19.5-4.95c-7.2,0-13.6,1.65-19.2,4.95c-5.6,3.3-10,7.85-13.2,13.65c-3.2,5.8-4.8,12.5-4.8,20.1
			c0,7.6,1.6,14.35,4.8,20.25c3.2,5.9,7.6,10.5,13.2,13.8C606.39,218.7,612.79,220.35,619.99,220.35z"/>
		<path class="st3" d="M706.69,143.55v-34.5h107.1v34.5H706.69z M740.59,253.95V48.75h39.3v205.2H740.59z"/>
		<path class="st3" d="M835.99,253.95v-144.9h39.3v144.9H835.99z M875.29,173.85l-15.3-10.2c1.8-17.8,7-31.85,15.6-42.15
			c8.6-10.3,21-15.45,37.2-15.45c7,0,13.3,1.15,18.9,3.45c5.6,2.3,10.7,6.05,15.3,11.25l-24.6,28.2c-2.2-2.4-4.85-4.2-7.95-5.4
			c-3.1-1.2-6.65-1.8-10.65-1.8c-8.4,0-15.25,2.65-20.55,7.95C877.94,155,875.29,163.05,875.29,173.85z"/>
		<path class="st3" d="M1017.49,256.95c-13.2,0-25.1-3.3-35.7-9.9c-10.6-6.6-18.9-15.6-24.9-27c-6-11.4-9-24.2-9-38.4
			c0-14.4,3-27.3,9-38.7c6-11.4,14.3-20.4,24.9-27c10.6-6.6,22.5-9.9,35.7-9.9c10.4,0,19.7,2.1,27.9,6.3
			c8.2,4.2,14.75,10.05,19.65,17.55c4.9,7.5,7.55,15.95,7.95,25.35v52.2c-0.4,9.6-3.05,18.1-7.95,25.5
			c-4.9,7.4-11.45,13.25-19.65,17.55C1037.19,254.8,1027.89,256.95,1017.49,256.95z M1024.69,220.65c11,0,19.9-3.65,26.7-10.95
			c6.8-7.3,10.2-16.75,10.2-28.35c0-7.6-1.55-14.35-4.65-20.25c-3.1-5.9-7.4-10.5-12.9-13.8c-5.5-3.3-11.95-4.95-19.35-4.95
			c-7.2,0-13.55,1.65-19.05,4.95c-5.5,3.3-9.8,7.9-12.9,13.8c-3.1,5.9-4.65,12.65-4.65,20.25c0,7.8,1.55,14.65,4.65,20.55
			c3.1,5.9,7.4,10.5,12.9,13.8C1011.14,219,1017.49,220.65,1024.69,220.65z M1059.49,253.95v-39l6.3-35.4l-6.3-34.8v-35.7h39v144.9
			H1059.49z"/>
		<path class="st3" d="M1133.29,253.95v-144.9h39.3v144.9H1133.29z M1230.79,253.95v-83.1c0-8.6-2.7-15.6-8.1-21
			c-5.4-5.4-12.4-8.1-21-8.1c-5.6,0-10.6,1.2-15,3.6c-4.4,2.4-7.85,5.8-10.35,10.2c-2.5,4.4-3.75,9.5-3.75,15.3l-15.3-7.8
			c0-11.4,2.45-21.35,7.35-29.85c4.9-8.5,11.7-15.15,20.4-19.95c8.7-4.8,18.55-7.2,29.55-7.2c10.6,0,20.1,2.65,28.5,7.95
			c8.4,5.3,15,12.2,19.8,20.7c4.8,8.5,7.2,17.65,7.2,27.45v91.8H1230.79z"/>
	</g>
</g>
</svg>
