<?xml version="1.0" encoding="utf-8"?>
<!-- Generator: Adobe Illustrator 27.4.0, SVG Export Plug-In . SVG Version: 6.00 Build 0)  -->
<svg version="1.1" id="레이어_1" xmlns="http://www.w3.org/2000/svg" xmlns:xlink="http://www.w3.org/1999/xlink" x="0px"
	 y="0px" viewBox="0 0 700 700" style="enable-background:new 0 0 700 700;" xml:space="preserve">
<g>
    <linearGradient id="gradient" x1="0" x2="1" y1="0" y2="0.8">
        <stop offset="0%" stop-color="#19b5fe"/>
        <stop offset="100%" stop-color="#5333ed"/>
    </linearGradient>
	
	<path fill="url(#gradient)" d="M389.99,382.56L389.99,382.56c-33.93-23.76-42.18-70.52-18.42-104.45L514.96,73.32 c23.76-33.93,70.52-42.18,104.45-18.42l0,0c33.93,23.76,42.18,70.52,18.42,104.45L494.44,364.14 C470.68,398.07,423.92,406.32,389.99,382.56z"/>
	<path fill="url(#gradient)" d="M345.49,651.62L345.49,651.62 c-37.54,17.51-82.16,1.26-99.67-36.28L55.64,207.51c-17.51-37.54-1.26-82.16,36.28-99.67l0,0c37.54-17.51,82.16-1.26,99.67,36.28 l190.18,407.84C399.27,589.5,383.03,634.12,345.49,651.62z"/>
	<path fill="url(#gradient)" d="M525.7,600.73L525.7,600.73 c-41.42,0-75-33.58-75-75v0c0-41.42,33.58-75,75-75h0c41.42,0,75,33.58,75,75v0C600.7,567.15,567.12,600.73,525.7,600.73z"/>
</g>
</svg>
